<?xml version="1.0" encoding="UTF-8" standalone="no"?>
<!DOCTYPE svg PUBLIC "-//W3C//DTD SVG 1.1//EN"
 "http://www.w3.org/Graphics/SVG/1.1/DTD/svg11.dtd">
<!-- Generated by graphviz version 2.47.0 (20210316.0004)
 -->
<!-- Title: dependencies Pages: 1 -->
<svg width="504pt" height="284pt"
 viewBox="0.00 0.00 504.00 284.00" xmlns="http://www.w3.org/2000/svg" xmlns:xlink="http://www.w3.org/1999/xlink">
<g id="graph0" class="graph" transform="scale(1 1) rotate(0) translate(4 280)">
<title>dependencies</title>
<polygon fill="white" stroke="transparent" points="-4,4 -4,-280 500,-280 500,4 -4,4"/>
<text text-anchor="start" x="227.01" y="-42.4" font-family="sans-serif" font-weight="bold" font-size="14.00">Legend</text>
<polygon fill="#ffffb3" stroke="transparent" points="14,-10 14,-30 34,-30 34,-10 14,-10"/>
<text text-anchor="start" x="37.63" y="-15.4" font-family="sans-serif" font-size="14.00"> &#160;Declarations</text>
<polygon fill="#8dd3c7" stroke="transparent" points="127,-10 127,-30 147,-30 147,-10 127,-10"/>
<text text-anchor="start" x="150.73" y="-15.4" font-family="sans-serif" font-size="14.00"> &#160;Module</text>
<polygon fill="#80b1d3" stroke="transparent" points="213,-10 213,-30 233,-30 233,-10 213,-10"/>
<text text-anchor="start" x="236.78" y="-15.4" font-family="sans-serif" font-size="14.00"> &#160;Bootstrap</text>
<polygon fill="#fdb462" stroke="transparent" points="310,-10 310,-30 330,-30 330,-10 310,-10"/>
<text text-anchor="start" x="333.67" y="-15.4" font-family="sans-serif" font-size="14.00"> &#160;Providers</text>
<polygon fill="#fb8072" stroke="transparent" points="406,-10 406,-30 426,-30 426,-10 406,-10"/>
<text text-anchor="start" x="429.73" y="-15.4" font-family="sans-serif" font-size="14.00"> &#160;Exports</text>
<g id="clust1" class="cluster">
<title>cluster_OrderProductModule</title>
<polygon fill="none" stroke="black" stroke-dasharray="1,5" points="78,-70 78,-268 418,-268 418,-70 78,-70"/>
</g>
<g id="clust3" class="cluster">
<title>cluster_OrderProductModule_imports</title>
<polygon fill="none" stroke="black" points="296,-78 296,-130 410,-130 410,-78 296,-78"/>
</g>
<g id="clust6" class="cluster">
<title>cluster_OrderProductModule_providers</title>
<polygon fill="none" stroke="black" points="86,-78 86,-130 288,-130 288,-78 86,-78"/>
</g>
<g id="clust4" class="cluster">
<title>cluster_OrderProductModule_exports</title>
<polygon fill="none" stroke="black" points="183,-208 183,-260 337,-260 337,-208 183,-208"/>
</g>
<!-- ConfigModule -->
<g id="node1" class="node">
<title>ConfigModule</title>
<polygon fill="#8dd3c7" stroke="black" points="402.44,-122 399.44,-126 378.44,-126 375.44,-122 303.56,-122 303.56,-86 402.44,-86 402.44,-122"/>
<text text-anchor="middle" x="353" y="-99.8" font-family="Times,serif" font-size="14.00">ConfigModule</text>
</g>
<!-- OrderProductModule -->
<g id="node2" class="node">
<title>OrderProductModule</title>
<polygon fill="#8dd3c7" stroke="black" points="327.74,-187 324.74,-191 303.74,-191 300.74,-187 192.26,-187 192.26,-151 327.74,-151 327.74,-187"/>
<text text-anchor="middle" x="260" y="-164.8" font-family="Times,serif" font-size="14.00">OrderProductModule</text>
</g>
<!-- ConfigModule&#45;&gt;OrderProductModule -->
<g id="edge1" class="edge">
<title>ConfigModule&#45;&gt;OrderProductModule</title>
<path fill="none" stroke="black" d="M315.83,-122.11C315.83,-122.11 315.83,-140.99 315.83,-140.99"/>
<polygon fill="black" stroke="black" points="312.33,-140.99 315.83,-150.99 319.33,-140.99 312.33,-140.99"/>
</g>
<!-- OrderProductService  -->
<g id="node3" class="node">
<title>OrderProductService </title>
<polygon fill="#fb8072" stroke="black" points="328.67,-252 191.33,-252 191.33,-216 328.67,-216 328.67,-252"/>
<text text-anchor="middle" x="260" y="-229.8" font-family="Times,serif" font-size="14.00">OrderProductService </text>
</g>
<!-- OrderProductModule&#45;&gt;OrderProductService  -->
<g id="edge2" class="edge">
<title>OrderProductModule&#45;&gt;OrderProductService </title>
<path fill="none" stroke="black" stroke-dasharray="5,2" d="M260,-187.11C260,-187.11 260,-205.99 260,-205.99"/>
<polygon fill="black" stroke="black" points="256.5,-205.99 260,-215.99 263.5,-205.99 256.5,-205.99"/>
</g>
<!-- OrderProductService -->
<g id="node4" class="node">
<title>OrderProductService</title>
<ellipse fill="#fdb462" stroke="black" cx="187" cy="-104" rx="92.59" ry="18"/>
<text text-anchor="middle" x="187" y="-99.8" font-family="Times,serif" font-size="14.00">OrderProductService</text>
</g>
<!-- OrderProductService&#45;&gt;OrderProductModule -->
<g id="edge3" class="edge">
<title>OrderProductService&#45;&gt;OrderProductModule</title>
<path fill="none" stroke="black" d="M235.84,-119.4C235.84,-119.4 235.84,-140.94 235.84,-140.94"/>
<polygon fill="black" stroke="black" points="232.34,-140.94 235.84,-150.94 239.34,-140.94 232.34,-140.94"/>
</g>
</g>
</svg>
