<?xml version="1.0" encoding="UTF-8" standalone="no"?>
<!DOCTYPE svg PUBLIC "-//W3C//DTD SVG 1.1//EN"
 "http://www.w3.org/Graphics/SVG/1.1/DTD/svg11.dtd">
<!-- Generated by graphviz version 2.47.0 (20210316.0004)
 -->
<!-- Title: dependencies Pages: 1 -->
<svg width="615pt" height="284pt"
 viewBox="0.00 0.00 615.00 284.00" xmlns="http://www.w3.org/2000/svg" xmlns:xlink="http://www.w3.org/1999/xlink">
<g id="graph0" class="graph" transform="scale(1 1) rotate(0) translate(4 280)">
<title>dependencies</title>
<polygon fill="white" stroke="transparent" points="-4,4 -4,-280 611,-280 611,4 -4,4"/>
<text text-anchor="start" x="282.51" y="-42.4" font-family="sans-serif" font-weight="bold" font-size="14.00">Legend</text>
<polygon fill="#ffffb3" stroke="transparent" points="69.5,-10 69.5,-30 89.5,-30 89.5,-10 69.5,-10"/>
<text text-anchor="start" x="93.13" y="-15.4" font-family="sans-serif" font-size="14.00"> &#160;Declarations</text>
<polygon fill="#8dd3c7" stroke="transparent" points="182.5,-10 182.5,-30 202.5,-30 202.5,-10 182.5,-10"/>
<text text-anchor="start" x="206.23" y="-15.4" font-family="sans-serif" font-size="14.00"> &#160;Module</text>
<polygon fill="#80b1d3" stroke="transparent" points="268.5,-10 268.5,-30 288.5,-30 288.5,-10 268.5,-10"/>
<text text-anchor="start" x="292.28" y="-15.4" font-family="sans-serif" font-size="14.00"> &#160;Bootstrap</text>
<polygon fill="#fdb462" stroke="transparent" points="365.5,-10 365.5,-30 385.5,-30 385.5,-10 365.5,-10"/>
<text text-anchor="start" x="389.17" y="-15.4" font-family="sans-serif" font-size="14.00"> &#160;Providers</text>
<polygon fill="#fb8072" stroke="transparent" points="461.5,-10 461.5,-30 481.5,-30 481.5,-10 461.5,-10"/>
<text text-anchor="start" x="485.23" y="-15.4" font-family="sans-serif" font-size="14.00"> &#160;Exports</text>
<g id="clust1" class="cluster">
<title>cluster_UserModule</title>
<polygon fill="none" stroke="black" stroke-dasharray="1,5" points="8,-70 8,-268 599,-268 599,-70 8,-70"/>
</g>
<g id="clust3" class="cluster">
<title>cluster_UserModule_imports</title>
<polygon fill="none" stroke="black" points="296,-78 296,-130 591,-130 591,-78 296,-78"/>
</g>
<g id="clust4" class="cluster">
<title>cluster_UserModule_exports</title>
<polygon fill="none" stroke="black" points="249,-208 249,-260 359,-260 359,-208 249,-208"/>
</g>
<g id="clust6" class="cluster">
<title>cluster_UserModule_providers</title>
<polygon fill="none" stroke="black" points="16,-78 16,-130 288,-130 288,-78 16,-78"/>
</g>
<!-- ConfigModule -->
<g id="node1" class="node">
<title>ConfigModule</title>
<polygon fill="#8dd3c7" stroke="black" points="583.44,-122 580.44,-126 559.44,-126 556.44,-122 484.56,-122 484.56,-86 583.44,-86 583.44,-122"/>
<text text-anchor="middle" x="534" y="-99.8" font-family="Times,serif" font-size="14.00">ConfigModule</text>
</g>
<!-- UserModule -->
<g id="node3" class="node">
<title>UserModule</title>
<polygon fill="#8dd3c7" stroke="black" points="346.98,-187 343.98,-191 322.98,-191 319.98,-187 261.02,-187 261.02,-151 346.98,-151 346.98,-187"/>
<text text-anchor="middle" x="304" y="-164.8" font-family="Times,serif" font-size="14.00">UserModule</text>
</g>
<!-- ConfigModule&#45;&gt;UserModule -->
<g id="edge1" class="edge">
<title>ConfigModule&#45;&gt;UserModule</title>
<path fill="none" stroke="black" d="M534,-122.11C534,-141.34 534,-169 534,-169 534,-169 356.99,-169 356.99,-169"/>
<polygon fill="black" stroke="black" points="356.99,-165.5 346.99,-169 356.99,-172.5 356.99,-165.5"/>
</g>
<!-- ResidentCompanyModule -->
<g id="node2" class="node">
<title>ResidentCompanyModule</title>
<polygon fill="#8dd3c7" stroke="black" points="466.48,-122 463.48,-126 442.48,-126 439.48,-122 303.52,-122 303.52,-86 466.48,-86 466.48,-122"/>
<text text-anchor="middle" x="385" y="-99.8" font-family="Times,serif" font-size="14.00">ResidentCompanyModule</text>
</g>
<!-- ResidentCompanyModule&#45;&gt;UserModule -->
<g id="edge2" class="edge">
<title>ResidentCompanyModule&#45;&gt;UserModule</title>
<path fill="none" stroke="black" d="M325.25,-122.11C325.25,-122.11 325.25,-140.99 325.25,-140.99"/>
<polygon fill="black" stroke="black" points="321.75,-140.99 325.25,-150.99 328.75,-140.99 321.75,-140.99"/>
</g>
<!-- UsersService  -->
<g id="node4" class="node">
<title>UsersService </title>
<polygon fill="#fb8072" stroke="black" points="350.85,-252 257.15,-252 257.15,-216 350.85,-216 350.85,-252"/>
<text text-anchor="middle" x="304" y="-229.8" font-family="Times,serif" font-size="14.00">UsersService </text>
</g>
<!-- UserModule&#45;&gt;UsersService  -->
<g id="edge3" class="edge">
<title>UserModule&#45;&gt;UsersService </title>
<path fill="none" stroke="black" stroke-dasharray="5,2" d="M304,-187.11C304,-187.11 304,-205.99 304,-205.99"/>
<polygon fill="black" stroke="black" points="300.5,-205.99 304,-215.99 307.5,-205.99 300.5,-205.99"/>
</g>
<!-- JwtStrategy -->
<g id="node5" class="node">
<title>JwtStrategy</title>
<ellipse fill="#fdb462" stroke="black" cx="223" cy="-104" rx="56.76" ry="18"/>
<text text-anchor="middle" x="223" y="-99.8" font-family="Times,serif" font-size="14.00">JwtStrategy</text>
</g>
<!-- JwtStrategy&#45;&gt;UserModule -->
<g id="edge4" class="edge">
<title>JwtStrategy&#45;&gt;UserModule</title>
<path fill="none" stroke="black" d="M270.32,-114.16C270.32,-114.16 270.32,-140.81 270.32,-140.81"/>
<polygon fill="black" stroke="black" points="266.82,-140.81 270.32,-150.81 273.82,-140.81 266.82,-140.81"/>
</g>
<!-- UsersService -->
<g id="node6" class="node">
<title>UsersService</title>
<ellipse fill="#fdb462" stroke="black" cx="86" cy="-104" rx="61.95" ry="18"/>
<text text-anchor="middle" x="86" y="-99.8" font-family="Times,serif" font-size="14.00">UsersService</text>
</g>
<!-- UsersService&#45;&gt;UserModule -->
<g id="edge5" class="edge">
<title>UsersService&#45;&gt;UserModule</title>
<path fill="none" stroke="black" d="M86,-122.11C86,-141.34 86,-169 86,-169 86,-169 250.93,-169 250.93,-169"/>
<polygon fill="black" stroke="black" points="250.93,-172.5 260.93,-169 250.93,-165.5 250.93,-172.5"/>
</g>
</g>
</svg>
