<?xml version="1.0" encoding="UTF-8" standalone="no"?>
<!DOCTYPE svg PUBLIC "-//W3C//DTD SVG 1.1//EN"
 "http://www.w3.org/Graphics/SVG/1.1/DTD/svg11.dtd">
<!-- Generated by graphviz version 2.47.0 (20210316.0004)
 -->
<!-- Title: dependencies Pages: 1 -->
<svg width="1306pt" height="211pt"
 viewBox="0.00 0.00 1306.00 211.00" xmlns="http://www.w3.org/2000/svg" xmlns:xlink="http://www.w3.org/1999/xlink">
<g id="graph0" class="graph" transform="scale(1 1) rotate(0) translate(4 207)">
<title>dependencies</title>
<polygon fill="white" stroke="transparent" points="-4,4 -4,-207 1302,-207 1302,4 -4,4"/>
<text text-anchor="start" x="628.01" y="-42.4" font-family="sans-serif" font-weight="bold" font-size="14.00">Legend</text>
<polygon fill="#ffffb3" stroke="transparent" points="415,-10 415,-30 435,-30 435,-10 415,-10"/>
<text text-anchor="start" x="438.63" y="-15.4" font-family="sans-serif" font-size="14.00"> &#160;Declarations</text>
<polygon fill="#8dd3c7" stroke="transparent" points="528,-10 528,-30 548,-30 548,-10 528,-10"/>
<text text-anchor="start" x="551.73" y="-15.4" font-family="sans-serif" font-size="14.00"> &#160;Module</text>
<polygon fill="#80b1d3" stroke="transparent" points="614,-10 614,-30 634,-30 634,-10 614,-10"/>
<text text-anchor="start" x="637.78" y="-15.4" font-family="sans-serif" font-size="14.00"> &#160;Bootstrap</text>
<polygon fill="#fdb462" stroke="transparent" points="711,-10 711,-30 731,-30 731,-10 711,-10"/>
<text text-anchor="start" x="734.67" y="-15.4" font-family="sans-serif" font-size="14.00"> &#160;Providers</text>
<polygon fill="#fb8072" stroke="transparent" points="807,-10 807,-30 827,-30 827,-10 807,-10"/>
<text text-anchor="start" x="830.73" y="-15.4" font-family="sans-serif" font-size="14.00"> &#160;Exports</text>
<g id="clust1" class="cluster">
<title>cluster_AppModule</title>
<polygon fill="none" stroke="black" stroke-dasharray="1,5" points="8,-70 8,-195 1290,-195 1290,-70 8,-70"/>
</g>
<g id="clust3" class="cluster">
<title>cluster_AppModule_imports</title>
<polygon fill="none" stroke="black" points="154,-78 154,-130 1282,-130 1282,-78 154,-78"/>
</g>
<g id="clust6" class="cluster">
<title>cluster_AppModule_providers</title>
<polygon fill="none" stroke="black" points="16,-78 16,-130 146,-130 146,-78 16,-78"/>
</g>
<!-- AuthModule -->
<g id="node1" class="node">
<title>AuthModule</title>
<polygon fill="#8dd3c7" stroke="black" points="1273.55,-122 1270.55,-126 1249.55,-126 1246.55,-122 1186.45,-122 1186.45,-86 1273.55,-86 1273.55,-122"/>
<text text-anchor="middle" x="1230" y="-99.8" font-family="Times,serif" font-size="14.00">AuthModule</text>
</g>
<!-- AppModule -->
<g id="node10" class="node">
<title>AppModule</title>
<polygon fill="#8dd3c7" stroke="black" points="746.66,-187 743.66,-191 722.66,-191 719.66,-187 663.34,-187 663.34,-151 746.66,-151 746.66,-187"/>
<text text-anchor="middle" x="705" y="-164.8" font-family="Times,serif" font-size="14.00">AppModule</text>
</g>
<!-- AuthModule&#45;&gt;AppModule -->
<g id="edge1" class="edge">
<title>AuthModule&#45;&gt;AppModule</title>
<path fill="none" stroke="black" d="M1230,-122.01C1230,-144.49 1230,-180 1230,-180 1230,-180 757.08,-180 757.08,-180"/>
<polygon fill="black" stroke="black" points="757.08,-176.5 747.08,-180 757.08,-183.5 757.08,-176.5"/>
</g>
<!-- CommonModule -->
<g id="node2" class="node">
<title>CommonModule</title>
<polygon fill="#8dd3c7" stroke="black" points="1167.67,-122 1164.67,-126 1143.67,-126 1140.67,-122 1056.33,-122 1056.33,-86 1167.67,-86 1167.67,-122"/>
<text text-anchor="middle" x="1112" y="-99.8" font-family="Times,serif" font-size="14.00">CommonModule</text>
</g>
<!-- CommonModule&#45;&gt;AppModule -->
<g id="edge2" class="edge">
<title>CommonModule&#45;&gt;AppModule</title>
<path fill="none" stroke="black" d="M1112,-122.13C1112,-142.57 1112,-173 1112,-173 1112,-173 757.02,-173 757.02,-173"/>
<polygon fill="black" stroke="black" points="757.02,-169.5 747.02,-173 757.02,-176.5 757.02,-169.5"/>
</g>
<!-- ConfigModule -->
<g id="node3" class="node">
<title>ConfigModule</title>
<polygon fill="#8dd3c7" stroke="black" points="1038.44,-122 1035.44,-126 1014.44,-126 1011.44,-122 939.56,-122 939.56,-86 1038.44,-86 1038.44,-122"/>
<text text-anchor="middle" x="989" y="-99.8" font-family="Times,serif" font-size="14.00">ConfigModule</text>
</g>
<!-- ConfigModule&#45;&gt;AppModule -->
<g id="edge3" class="edge">
<title>ConfigModule&#45;&gt;AppModule</title>
<path fill="none" stroke="black" d="M989,-122.27C989,-140.56 989,-166 989,-166 989,-166 756.91,-166 756.91,-166"/>
<polygon fill="black" stroke="black" points="756.91,-162.5 746.91,-166 756.91,-169.5 756.91,-162.5"/>
</g>
<!-- FileModule -->
<g id="node4" class="node">
<title>FileModule</title>
<polygon fill="#8dd3c7" stroke="black" points="921.83,-122 918.83,-126 897.83,-126 894.83,-122 840.17,-122 840.17,-86 921.83,-86 921.83,-122"/>
<text text-anchor="middle" x="881" y="-99.8" font-family="Times,serif" font-size="14.00">FileModule</text>
</g>
<!-- FileModule&#45;&gt;AppModule -->
<g id="edge4" class="edge">
<title>FileModule&#45;&gt;AppModule</title>
<path fill="none" stroke="black" d="M881,-122.01C881,-138.05 881,-159 881,-159 881,-159 756.71,-159 756.71,-159"/>
<polygon fill="black" stroke="black" points="756.71,-155.5 746.71,-159 756.71,-162.5 756.71,-155.5"/>
</g>
<!-- MasterModule -->
<g id="node5" class="node">
<title>MasterModule</title>
<polygon fill="#8dd3c7" stroke="black" points="822.42,-122 819.42,-126 798.42,-126 795.42,-122 723.58,-122 723.58,-86 822.42,-86 822.42,-122"/>
<text text-anchor="middle" x="773" y="-99.8" font-family="Times,serif" font-size="14.00">MasterModule</text>
</g>
<!-- MasterModule&#45;&gt;AppModule -->
<g id="edge5" class="edge">
<title>MasterModule&#45;&gt;AppModule</title>
<path fill="none" stroke="black" d="M735.31,-122.11C735.31,-122.11 735.31,-140.99 735.31,-140.99"/>
<polygon fill="black" stroke="black" points="731.81,-140.99 735.31,-150.99 738.81,-140.99 731.81,-140.99"/>
</g>
<!-- OrderProductModule -->
<g id="node6" class="node">
<title>OrderProductModule</title>
<polygon fill="#8dd3c7" stroke="black" points="705.74,-122 702.74,-126 681.74,-126 678.74,-122 570.26,-122 570.26,-86 705.74,-86 705.74,-122"/>
<text text-anchor="middle" x="638" y="-99.8" font-family="Times,serif" font-size="14.00">OrderProductModule</text>
</g>
<!-- OrderProductModule&#45;&gt;AppModule -->
<g id="edge6" class="edge">
<title>OrderProductModule&#45;&gt;AppModule</title>
<path fill="none" stroke="black" d="M684.52,-122.11C684.52,-122.11 684.52,-140.99 684.52,-140.99"/>
<polygon fill="black" stroke="black" points="681.02,-140.99 684.52,-150.99 688.02,-140.99 681.02,-140.99"/>
</g>
<!-- ResidentCompanyModule -->
<g id="node7" class="node">
<title>ResidentCompanyModule</title>
<polygon fill="#8dd3c7" stroke="black" points="552.48,-122 549.48,-126 528.48,-126 525.48,-122 389.52,-122 389.52,-86 552.48,-86 552.48,-122"/>
<text text-anchor="middle" x="471" y="-99.8" font-family="Times,serif" font-size="14.00">ResidentCompanyModule</text>
</g>
<!-- ResidentCompanyModule&#45;&gt;AppModule -->
<g id="edge7" class="edge">
<title>ResidentCompanyModule&#45;&gt;AppModule</title>
<path fill="none" stroke="black" d="M471,-122.01C471,-138.05 471,-159 471,-159 471,-159 653.17,-159 653.17,-159"/>
<polygon fill="black" stroke="black" points="653.17,-162.5 663.17,-159 653.17,-155.5 653.17,-162.5"/>
</g>
<!-- SponsorModule -->
<g id="node8" class="node">
<title>SponsorModule</title>
<polygon fill="#8dd3c7" stroke="black" points="371.94,-122 368.94,-126 347.94,-126 344.94,-122 266.06,-122 266.06,-86 371.94,-86 371.94,-122"/>
<text text-anchor="middle" x="319" y="-99.8" font-family="Times,serif" font-size="14.00">SponsorModule</text>
</g>
<!-- SponsorModule&#45;&gt;AppModule -->
<g id="edge8" class="edge">
<title>SponsorModule&#45;&gt;AppModule</title>
<path fill="none" stroke="black" d="M319,-122.27C319,-140.56 319,-166 319,-166 319,-166 653.32,-166 653.32,-166"/>
<polygon fill="black" stroke="black" points="653.32,-169.5 663.32,-166 653.32,-162.5 653.32,-169.5"/>
</g>
<!-- UserModule -->
<g id="node9" class="node">
<title>UserModule</title>
<polygon fill="#8dd3c7" stroke="black" points="247.98,-122 244.98,-126 223.98,-126 220.98,-122 162.02,-122 162.02,-86 247.98,-86 247.98,-122"/>
<text text-anchor="middle" x="205" y="-99.8" font-family="Times,serif" font-size="14.00">UserModule</text>
</g>
<!-- UserModule&#45;&gt;AppModule -->
<g id="edge9" class="edge">
<title>UserModule&#45;&gt;AppModule</title>
<path fill="none" stroke="black" d="M205,-122.13C205,-142.57 205,-173 205,-173 205,-173 653.23,-173 653.23,-173"/>
<polygon fill="black" stroke="black" points="653.23,-176.5 663.23,-173 653.23,-169.5 653.23,-176.5"/>
</g>
<!-- AppService -->
<g id="node11" class="node">
<title>AppService</title>
<ellipse fill="#fdb462" stroke="black" cx="81" cy="-104" rx="56.74" ry="18"/>
<text text-anchor="middle" x="81" y="-99.8" font-family="Times,serif" font-size="14.00">AppService</text>
</g>
<!-- AppService&#45;&gt;AppModule -->
<g id="edge10" class="edge">
<title>AppService&#45;&gt;AppModule</title>
<path fill="none" stroke="black" d="M81,-122.01C81,-144.49 81,-180 81,-180 81,-180 653.09,-180 653.09,-180"/>
<polygon fill="black" stroke="black" points="653.09,-183.5 663.09,-180 653.09,-176.5 653.09,-183.5"/>
</g>
</g>
</svg>
