<?xml version="1.0" encoding="UTF-8" standalone="no"?>
<!DOCTYPE svg PUBLIC "-//W3C//DTD SVG 1.1//EN"
 "http://www.w3.org/Graphics/SVG/1.1/DTD/svg11.dtd">
<!-- Generated by graphviz version 2.47.0 (20210316.0004)
 -->
<!-- Title: dependencies Pages: 1 -->
<svg width="829pt" height="211pt"
 viewBox="0.00 0.00 829.00 211.00" xmlns="http://www.w3.org/2000/svg" xmlns:xlink="http://www.w3.org/1999/xlink">
<g id="graph0" class="graph" transform="scale(1 1) rotate(0) translate(4 207)">
<title>dependencies</title>
<polygon fill="white" stroke="transparent" points="-4,4 -4,-207 825,-207 825,4 -4,4"/>
<text text-anchor="start" x="389.51" y="-42.4" font-family="sans-serif" font-weight="bold" font-size="14.00">Legend</text>
<polygon fill="#ffffb3" stroke="transparent" points="176.5,-10 176.5,-30 196.5,-30 196.5,-10 176.5,-10"/>
<text text-anchor="start" x="200.13" y="-15.4" font-family="sans-serif" font-size="14.00"> &#160;Declarations</text>
<polygon fill="#8dd3c7" stroke="transparent" points="289.5,-10 289.5,-30 309.5,-30 309.5,-10 289.5,-10"/>
<text text-anchor="start" x="313.23" y="-15.4" font-family="sans-serif" font-size="14.00"> &#160;Module</text>
<polygon fill="#80b1d3" stroke="transparent" points="375.5,-10 375.5,-30 395.5,-30 395.5,-10 375.5,-10"/>
<text text-anchor="start" x="399.28" y="-15.4" font-family="sans-serif" font-size="14.00"> &#160;Bootstrap</text>
<polygon fill="#fdb462" stroke="transparent" points="472.5,-10 472.5,-30 492.5,-30 492.5,-10 472.5,-10"/>
<text text-anchor="start" x="496.17" y="-15.4" font-family="sans-serif" font-size="14.00"> &#160;Providers</text>
<polygon fill="#fb8072" stroke="transparent" points="568.5,-10 568.5,-30 588.5,-30 588.5,-10 568.5,-10"/>
<text text-anchor="start" x="592.23" y="-15.4" font-family="sans-serif" font-size="14.00"> &#160;Exports</text>
<g id="clust1" class="cluster">
<title>cluster_AuthModule</title>
<polygon fill="none" stroke="black" stroke-dasharray="1,5" points="8,-70 8,-195 813,-195 813,-70 8,-70"/>
</g>
<g id="clust3" class="cluster">
<title>cluster_AuthModule_imports</title>
<polygon fill="none" stroke="black" points="290,-78 290,-130 805,-130 805,-78 290,-78"/>
</g>
<g id="clust6" class="cluster">
<title>cluster_AuthModule_providers</title>
<polygon fill="none" stroke="black" points="16,-78 16,-130 282,-130 282,-78 16,-78"/>
</g>
<!-- ConfigModule -->
<g id="node1" class="node">
<title>ConfigModule</title>
<polygon fill="#8dd3c7" stroke="black" points="797.44,-122 794.44,-126 773.44,-126 770.44,-122 698.56,-122 698.56,-86 797.44,-86 797.44,-122"/>
<text text-anchor="middle" x="748" y="-99.8" font-family="Times,serif" font-size="14.00">ConfigModule</text>
</g>
<!-- AuthModule -->
<g id="node5" class="node">
<title>AuthModule</title>
<polygon fill="#8dd3c7" stroke="black" points="455.55,-187 452.55,-191 431.55,-191 428.55,-187 368.45,-187 368.45,-151 455.55,-151 455.55,-187"/>
<text text-anchor="middle" x="412" y="-164.8" font-family="Times,serif" font-size="14.00">AuthModule</text>
</g>
<!-- ConfigModule&#45;&gt;AuthModule -->
<g id="edge1" class="edge">
<title>ConfigModule&#45;&gt;AuthModule</title>
<path fill="none" stroke="black" d="M748,-122.28C748,-143.32 748,-175 748,-175 748,-175 465.58,-175 465.58,-175"/>
<polygon fill="black" stroke="black" points="465.58,-171.5 455.58,-175 465.58,-178.5 465.58,-171.5"/>
</g>
<!-- MasterModule -->
<g id="node2" class="node">
<title>MasterModule</title>
<polygon fill="#8dd3c7" stroke="black" points="681.42,-122 678.42,-126 657.42,-126 654.42,-122 582.58,-122 582.58,-86 681.42,-86 681.42,-122"/>
<text text-anchor="middle" x="632" y="-99.8" font-family="Times,serif" font-size="14.00">MasterModule</text>
</g>
<!-- MasterModule&#45;&gt;AuthModule -->
<g id="edge2" class="edge">
<title>MasterModule&#45;&gt;AuthModule</title>
<path fill="none" stroke="black" d="M632,-122.02C632,-139.37 632,-163 632,-163 632,-163 465.73,-163 465.73,-163"/>
<polygon fill="black" stroke="black" points="465.73,-159.5 455.73,-163 465.73,-166.5 465.73,-159.5"/>
</g>
<!-- ResidentCompanyModule -->
<g id="node3" class="node">
<title>ResidentCompanyModule</title>
<polygon fill="#8dd3c7" stroke="black" points="564.48,-122 561.48,-126 540.48,-126 537.48,-122 401.52,-122 401.52,-86 564.48,-86 564.48,-122"/>
<text text-anchor="middle" x="483" y="-99.8" font-family="Times,serif" font-size="14.00">ResidentCompanyModule</text>
</g>
<!-- ResidentCompanyModule&#45;&gt;AuthModule -->
<g id="edge3" class="edge">
<title>ResidentCompanyModule&#45;&gt;AuthModule</title>
<path fill="none" stroke="black" d="M428.64,-122.11C428.64,-122.11 428.64,-140.99 428.64,-140.99"/>
<polygon fill="black" stroke="black" points="425.14,-140.99 428.64,-150.99 432.14,-140.99 425.14,-140.99"/>
</g>
<!-- UserModule -->
<g id="node4" class="node">
<title>UserModule</title>
<polygon fill="#8dd3c7" stroke="black" points="383.98,-122 380.98,-126 359.98,-126 356.98,-122 298.02,-122 298.02,-86 383.98,-86 383.98,-122"/>
<text text-anchor="middle" x="341" y="-99.8" font-family="Times,serif" font-size="14.00">UserModule</text>
</g>
<!-- UserModule&#45;&gt;AuthModule -->
<g id="edge4" class="edge">
<title>UserModule&#45;&gt;AuthModule</title>
<path fill="none" stroke="black" d="M376.11,-122.11C376.11,-122.11 376.11,-140.99 376.11,-140.99"/>
<polygon fill="black" stroke="black" points="372.61,-140.99 376.11,-150.99 379.61,-140.99 372.61,-140.99"/>
</g>
<!-- AuthService -->
<g id="node6" class="node">
<title>AuthService</title>
<ellipse fill="#fdb462" stroke="black" cx="215" cy="-104" rx="59.11" ry="18"/>
<text text-anchor="middle" x="215" y="-99.8" font-family="Times,serif" font-size="14.00">AuthService</text>
</g>
<!-- AuthService&#45;&gt;AuthModule -->
<g id="edge5" class="edge">
<title>AuthService&#45;&gt;AuthModule</title>
<path fill="none" stroke="black" d="M215,-122.02C215,-139.37 215,-163 215,-163 215,-163 358.28,-163 358.28,-163"/>
<polygon fill="black" stroke="black" points="358.28,-166.5 368.28,-163 358.28,-159.5 358.28,-166.5"/>
</g>
<!-- JwtStrategy -->
<g id="node7" class="node">
<title>JwtStrategy</title>
<ellipse fill="#fdb462" stroke="black" cx="81" cy="-104" rx="56.76" ry="18"/>
<text text-anchor="middle" x="81" y="-99.8" font-family="Times,serif" font-size="14.00">JwtStrategy</text>
</g>
<!-- JwtStrategy&#45;&gt;AuthModule -->
<g id="edge6" class="edge">
<title>JwtStrategy&#45;&gt;AuthModule</title>
<path fill="none" stroke="black" d="M81,-122.28C81,-143.32 81,-175 81,-175 81,-175 358.39,-175 358.39,-175"/>
<polygon fill="black" stroke="black" points="358.39,-178.5 368.39,-175 358.39,-171.5 358.39,-178.5"/>
</g>
</g>
</svg>
