<?xml version="1.0" encoding="UTF-8" standalone="no"?>
<!DOCTYPE svg PUBLIC "-//W3C//DTD SVG 1.1//EN"
 "http://www.w3.org/Graphics/SVG/1.1/DTD/svg11.dtd">
<!-- Generated by graphviz version 2.47.0 (20210316.0004)
 -->
<!-- Title: dependencies Pages: 1 -->
<svg width="504pt" height="284pt"
 viewBox="0.00 0.00 504.00 284.00" xmlns="http://www.w3.org/2000/svg" xmlns:xlink="http://www.w3.org/1999/xlink">
<g id="graph0" class="graph" transform="scale(1 1) rotate(0) translate(4 280)">
<title>dependencies</title>
<polygon fill="white" stroke="transparent" points="-4,4 -4,-280 500,-280 500,4 -4,4"/>
<text text-anchor="start" x="227.01" y="-42.4" font-family="sans-serif" font-weight="bold" font-size="14.00">Legend</text>
<polygon fill="#ffffb3" stroke="transparent" points="14,-10 14,-30 34,-30 34,-10 14,-10"/>
<text text-anchor="start" x="37.63" y="-15.4" font-family="sans-serif" font-size="14.00"> &#160;Declarations</text>
<polygon fill="#8dd3c7" stroke="transparent" points="127,-10 127,-30 147,-30 147,-10 127,-10"/>
<text text-anchor="start" x="150.73" y="-15.4" font-family="sans-serif" font-size="14.00"> &#160;Module</text>
<polygon fill="#80b1d3" stroke="transparent" points="213,-10 213,-30 233,-30 233,-10 213,-10"/>
<text text-anchor="start" x="236.78" y="-15.4" font-family="sans-serif" font-size="14.00"> &#160;Bootstrap</text>
<polygon fill="#fdb462" stroke="transparent" points="310,-10 310,-30 330,-30 330,-10 310,-10"/>
<text text-anchor="start" x="333.67" y="-15.4" font-family="sans-serif" font-size="14.00"> &#160;Providers</text>
<polygon fill="#fb8072" stroke="transparent" points="406,-10 406,-30 426,-30 426,-10 406,-10"/>
<text text-anchor="start" x="429.73" y="-15.4" font-family="sans-serif" font-size="14.00"> &#160;Exports</text>
<g id="clust1" class="cluster">
<title>cluster_ResidentCompanyModule</title>
<polygon fill="none" stroke="black" stroke-dasharray="1,5" points="60,-70 60,-268 436,-268 436,-70 60,-70"/>
</g>
<g id="clust6" class="cluster">
<title>cluster_ResidentCompanyModule_providers</title>
<polygon fill="none" stroke="black" points="190,-78 190,-130 428,-130 428,-78 190,-78"/>
</g>
<g id="clust4" class="cluster">
<title>cluster_ResidentCompanyModule_exports</title>
<polygon fill="none" stroke="black" points="143,-208 143,-260 323,-260 323,-208 143,-208"/>
</g>
<g id="clust3" class="cluster">
<title>cluster_ResidentCompanyModule_imports</title>
<polygon fill="none" stroke="black" points="68,-78 68,-130 182,-130 182,-78 68,-78"/>
</g>
<!-- ConfigModule -->
<g id="node1" class="node">
<title>ConfigModule</title>
<polygon fill="#8dd3c7" stroke="black" points="174.44,-122 171.44,-126 150.44,-126 147.44,-122 75.56,-122 75.56,-86 174.44,-86 174.44,-122"/>
<text text-anchor="middle" x="125" y="-99.8" font-family="Times,serif" font-size="14.00">ConfigModule</text>
</g>
<!-- ResidentCompanyModule -->
<g id="node2" class="node">
<title>ResidentCompanyModule</title>
<polygon fill="#8dd3c7" stroke="black" points="314.48,-187 311.48,-191 290.48,-191 287.48,-187 151.52,-187 151.52,-151 314.48,-151 314.48,-187"/>
<text text-anchor="middle" x="233" y="-164.8" font-family="Times,serif" font-size="14.00">ResidentCompanyModule</text>
</g>
<!-- ConfigModule&#45;&gt;ResidentCompanyModule -->
<g id="edge1" class="edge">
<title>ConfigModule&#45;&gt;ResidentCompanyModule</title>
<path fill="none" stroke="black" d="M162.86,-122.11C162.86,-122.11 162.86,-140.99 162.86,-140.99"/>
<polygon fill="black" stroke="black" points="159.36,-140.99 162.86,-150.99 166.36,-140.99 159.36,-140.99"/>
</g>
<!-- ResidentCompanyService  -->
<g id="node3" class="node">
<title>ResidentCompanyService </title>
<polygon fill="#fb8072" stroke="black" points="315.41,-252 150.59,-252 150.59,-216 315.41,-216 315.41,-252"/>
<text text-anchor="middle" x="233" y="-229.8" font-family="Times,serif" font-size="14.00">ResidentCompanyService </text>
</g>
<!-- ResidentCompanyModule&#45;&gt;ResidentCompanyService  -->
<g id="edge2" class="edge">
<title>ResidentCompanyModule&#45;&gt;ResidentCompanyService </title>
<path fill="none" stroke="black" stroke-dasharray="5,2" d="M233,-187.11C233,-187.11 233,-205.99 233,-205.99"/>
<polygon fill="black" stroke="black" points="229.5,-205.99 233,-215.99 236.5,-205.99 229.5,-205.99"/>
</g>
<!-- ResidentCompanyService -->
<g id="node4" class="node">
<title>ResidentCompanyService</title>
<ellipse fill="#fdb462" stroke="black" cx="309" cy="-104" rx="111.18" ry="18"/>
<text text-anchor="middle" x="309" y="-99.8" font-family="Times,serif" font-size="14.00">ResidentCompanyService</text>
</g>
<!-- ResidentCompanyService&#45;&gt;ResidentCompanyModule -->
<g id="edge3" class="edge">
<title>ResidentCompanyService&#45;&gt;ResidentCompanyModule</title>
<path fill="none" stroke="black" d="M256.08,-120.07C256.08,-120.07 256.08,-140.82 256.08,-140.82"/>
<polygon fill="black" stroke="black" points="252.58,-140.82 256.08,-150.82 259.58,-140.82 252.58,-140.82"/>
</g>
</g>
</svg>
