<?xml version="1.0" encoding="UTF-8" standalone="no"?>
<!DOCTYPE svg PUBLIC "-//W3C//DTD SVG 1.1//EN"
 "http://www.w3.org/Graphics/SVG/1.1/DTD/svg11.dtd">
<!-- Generated by graphviz version 2.47.0 (20210316.0004)
 -->
<!-- Title: dependencies Pages: 1 -->
<svg width="504pt" height="284pt"
 viewBox="0.00 0.00 504.00 284.00" xmlns="http://www.w3.org/2000/svg" xmlns:xlink="http://www.w3.org/1999/xlink">
<g id="graph0" class="graph" transform="scale(1 1) rotate(0) translate(4 280)">
<title>dependencies</title>
<polygon fill="white" stroke="transparent" points="-4,4 -4,-280 500,-280 500,4 -4,4"/>
<text text-anchor="start" x="227.01" y="-42.4" font-family="sans-serif" font-weight="bold" font-size="14.00">Legend</text>
<polygon fill="#ffffb3" stroke="transparent" points="14,-10 14,-30 34,-30 34,-10 14,-10"/>
<text text-anchor="start" x="37.63" y="-15.4" font-family="sans-serif" font-size="14.00"> &#160;Declarations</text>
<polygon fill="#8dd3c7" stroke="transparent" points="127,-10 127,-30 147,-30 147,-10 127,-10"/>
<text text-anchor="start" x="150.73" y="-15.4" font-family="sans-serif" font-size="14.00"> &#160;Module</text>
<polygon fill="#80b1d3" stroke="transparent" points="213,-10 213,-30 233,-30 233,-10 213,-10"/>
<text text-anchor="start" x="236.78" y="-15.4" font-family="sans-serif" font-size="14.00"> &#160;Bootstrap</text>
<polygon fill="#fdb462" stroke="transparent" points="310,-10 310,-30 330,-30 330,-10 310,-10"/>
<text text-anchor="start" x="333.67" y="-15.4" font-family="sans-serif" font-size="14.00"> &#160;Providers</text>
<polygon fill="#fb8072" stroke="transparent" points="406,-10 406,-30 426,-30 426,-10 406,-10"/>
<text text-anchor="start" x="429.73" y="-15.4" font-family="sans-serif" font-size="14.00"> &#160;Exports</text>
<g id="clust1" class="cluster">
<title>cluster_FileModule</title>
<polygon fill="none" stroke="black" stroke-dasharray="1,5" points="32,-70 32,-268 464,-268 464,-70 32,-70"/>
</g>
<g id="clust3" class="cluster">
<title>cluster_FileModule_imports</title>
<polygon fill="none" stroke="black" points="174,-78 174,-130 456,-130 456,-78 174,-78"/>
</g>
<g id="clust4" class="cluster">
<title>cluster_FileModule_exports</title>
<polygon fill="none" stroke="black" points="175,-208 175,-260 275,-260 275,-208 175,-208"/>
</g>
<g id="clust6" class="cluster">
<title>cluster_FileModule_providers</title>
<polygon fill="none" stroke="black" points="40,-78 40,-130 166,-130 166,-78 40,-78"/>
</g>
<!-- ResidentCompanyModule -->
<g id="node1" class="node">
<title>ResidentCompanyModule</title>
<polygon fill="#8dd3c7" stroke="black" points="448.48,-122 445.48,-126 424.48,-126 421.48,-122 285.52,-122 285.52,-86 448.48,-86 448.48,-122"/>
<text text-anchor="middle" x="367" y="-99.8" font-family="Times,serif" font-size="14.00">ResidentCompanyModule</text>
</g>
<!-- FileModule -->
<g id="node3" class="node">
<title>FileModule</title>
<polygon fill="#8dd3c7" stroke="black" points="265.83,-187 262.83,-191 241.83,-191 238.83,-187 184.17,-187 184.17,-151 265.83,-151 265.83,-187"/>
<text text-anchor="middle" x="225" y="-164.8" font-family="Times,serif" font-size="14.00">FileModule</text>
</g>
<!-- ResidentCompanyModule&#45;&gt;FileModule -->
<g id="edge1" class="edge">
<title>ResidentCompanyModule&#45;&gt;FileModule</title>
<path fill="none" stroke="black" d="M367,-122.11C367,-141.34 367,-169 367,-169 367,-169 275.69,-169 275.69,-169"/>
<polygon fill="black" stroke="black" points="275.69,-165.5 265.69,-169 275.69,-172.5 275.69,-165.5"/>
</g>
<!-- UserModule -->
<g id="node2" class="node">
<title>UserModule</title>
<polygon fill="#8dd3c7" stroke="black" points="267.98,-122 264.98,-126 243.98,-126 240.98,-122 182.02,-122 182.02,-86 267.98,-86 267.98,-122"/>
<text text-anchor="middle" x="225" y="-99.8" font-family="Times,serif" font-size="14.00">UserModule</text>
</g>
<!-- UserModule&#45;&gt;FileModule -->
<g id="edge2" class="edge">
<title>UserModule&#45;&gt;FileModule</title>
<path fill="none" stroke="black" d="M225,-122.11C225,-122.11 225,-140.99 225,-140.99"/>
<polygon fill="black" stroke="black" points="221.5,-140.99 225,-150.99 228.5,-140.99 221.5,-140.99"/>
</g>
<!-- FileService  -->
<g id="node4" class="node">
<title>FileService </title>
<polygon fill="#fb8072" stroke="black" points="266.76,-252 183.24,-252 183.24,-216 266.76,-216 266.76,-252"/>
<text text-anchor="middle" x="225" y="-229.8" font-family="Times,serif" font-size="14.00">FileService </text>
</g>
<!-- FileModule&#45;&gt;FileService  -->
<g id="edge3" class="edge">
<title>FileModule&#45;&gt;FileService </title>
<path fill="none" stroke="black" stroke-dasharray="5,2" d="M225,-187.11C225,-187.11 225,-205.99 225,-205.99"/>
<polygon fill="black" stroke="black" points="221.5,-205.99 225,-215.99 228.5,-205.99 221.5,-205.99"/>
</g>
<!-- FileService -->
<g id="node5" class="node">
<title>FileService</title>
<ellipse fill="#fdb462" stroke="black" cx="103" cy="-104" rx="55.03" ry="18"/>
<text text-anchor="middle" x="103" y="-99.8" font-family="Times,serif" font-size="14.00">FileService</text>
</g>
<!-- FileService&#45;&gt;FileModule -->
<g id="edge4" class="edge">
<title>FileService&#45;&gt;FileModule</title>
<path fill="none" stroke="black" d="M103,-122.11C103,-141.34 103,-169 103,-169 103,-169 174.04,-169 174.04,-169"/>
<polygon fill="black" stroke="black" points="174.04,-172.5 184.04,-169 174.04,-165.5 174.04,-172.5"/>
</g>
</g>
</svg>
